<svg width="135" height="51" viewBox="0 0 135 51" fill="none" xmlns="http://www.w3.org/2000/svg">
<rect x="0.5" width="134" height="51" rx="25.5" fill="#6966FF"/>
<mask id="mask0_1_3981" style="mask-type:alpha" maskUnits="userSpaceOnUse" x="0" y="0" width="135" height="51">
<rect x="0.5" width="134" height="51" rx="25.5" fill="#6966FF"/>
</mask>
<g mask="url(#mask0_1_3981)">
<ellipse cx="17.3214" cy="53.4286" rx="42.8214" ry="42.4286" fill="#5956E9"/>
<ellipse cx="92.75" cy="58.8571" rx="41.25" ry="40.8571" fill="#38D4FF" style="mix-blend-mode:multiply"/>
<ellipse cx="113.107" cy="-8.14286" rx="41.25" ry="40.8571" fill="#E541ED"/>
<path d="M33.778 18.184H39.592C41.008 18.184 42.106 18.526 42.886 19.21C43.678 19.894 44.074 20.824 44.074 22C44.074 23.164 43.678 24.094 42.886 24.79C42.094 25.474 40.996 25.816 39.592 25.816H36.586V31H33.778V18.184ZM39.232 23.674C40.696 23.674 41.428 23.122 41.428 22.018C41.428 20.902 40.696 20.344 39.232 20.344H36.586V23.674H39.232ZM49.7489 31.144C48.7769 31.144 47.9249 30.952 47.1929 30.568C46.4729 30.184 45.9149 29.632 45.5189 28.912C45.1349 28.192 44.9429 27.352 44.9429 26.392C44.9429 25.432 45.1349 24.592 45.5189 23.872C45.9149 23.152 46.4729 22.6 47.1929 22.216C47.9249 21.832 48.7769 21.64 49.7489 21.64C50.7089 21.64 51.5489 21.832 52.2689 22.216C52.9889 22.6 53.5409 23.152 53.9249 23.872C54.3209 24.592 54.5189 25.432 54.5189 26.392C54.5189 27.352 54.3209 28.192 53.9249 28.912C53.5409 29.632 52.9889 30.184 52.2689 30.568C51.5489 30.952 50.7089 31.144 49.7489 31.144ZM49.7489 29.074C50.4209 29.074 50.9309 28.852 51.2789 28.408C51.6389 27.964 51.8189 27.292 51.8189 26.392C51.8189 25.504 51.6389 24.838 51.2789 24.394C50.9309 23.938 50.4209 23.71 49.7489 23.71C49.0649 23.71 48.5429 23.938 48.1829 24.394C47.8229 24.838 47.6429 25.504 47.6429 26.392C47.6429 28.18 48.3449 29.074 49.7489 29.074ZM61.8362 21.64C62.6162 21.64 63.3122 21.844 63.9242 22.252C64.5362 22.648 65.0102 23.212 65.3462 23.944C65.6942 24.676 65.8682 25.51 65.8682 26.446C65.8682 27.382 65.7002 28.21 65.3642 28.93C65.0282 29.638 64.5542 30.184 63.9422 30.568C63.3302 30.952 62.6282 31.144 61.8362 31.144C61.2002 31.144 60.6302 31.012 60.1262 30.748C59.6222 30.484 59.2382 30.118 58.9742 29.65V34.888H56.2562V24.484C56.2562 23.512 56.2082 22.642 56.1122 21.874H58.6682L58.8482 23.386C59.0882 22.846 59.4722 22.42 60.0002 22.108C60.5402 21.796 61.1522 21.64 61.8362 21.64ZM61.0622 29.074C61.7342 29.074 62.2502 28.852 62.6102 28.408C62.9702 27.952 63.1502 27.298 63.1502 26.446C63.1502 25.594 62.9642 24.928 62.5922 24.448C62.2322 23.968 61.7222 23.728 61.0622 23.728C60.3902 23.728 59.8682 23.962 59.4962 24.43C59.1362 24.886 58.9562 25.546 58.9562 26.41C58.9562 27.274 59.1362 27.934 59.4962 28.39C59.8682 28.846 60.3902 29.074 61.0622 29.074ZM76.3237 21.874V31H73.6777V29.668C73.3897 30.148 73.0117 30.514 72.5437 30.766C72.0757 31.018 71.5477 31.144 70.9597 31.144C69.8197 31.144 68.9677 30.826 68.4037 30.19C67.8397 29.554 67.5577 28.594 67.5577 27.31V21.874H70.2757V27.364C70.2757 28.468 70.7497 29.02 71.6977 29.02C72.2617 29.02 72.7177 28.828 73.0657 28.444C73.4137 28.06 73.5877 27.556 73.5877 26.932V21.874H76.3237ZM78.5277 17.752H81.2457V31H78.5277V17.752ZM92.6111 21.874V31H89.9291V29.65C89.6531 30.118 89.2631 30.484 88.7591 30.748C88.2551 31.012 87.6851 31.144 87.0491 31.144C86.2571 31.144 85.5551 30.952 84.9431 30.568C84.3431 30.184 83.8691 29.638 83.5211 28.93C83.1851 28.21 83.0171 27.382 83.0171 26.446C83.0171 25.51 83.1851 24.676 83.5211 23.944C83.8691 23.212 84.3491 22.648 84.9611 22.252C85.5731 21.844 86.2691 21.64 87.0491 21.64C87.6851 21.64 88.2551 21.778 88.7591 22.054C89.2631 22.33 89.6531 22.702 89.9291 23.17V21.874H92.6111ZM87.8411 29.074C88.5131 29.074 89.0291 28.846 89.3891 28.39C89.7491 27.934 89.9291 27.274 89.9291 26.41C89.9291 25.546 89.7491 24.886 89.3891 24.43C89.0291 23.962 88.5131 23.728 87.8411 23.728C87.1691 23.728 86.6471 23.968 86.2751 24.448C85.9031 24.928 85.7171 25.594 85.7171 26.446C85.7171 27.298 85.8971 27.952 86.2571 28.408C86.6291 28.852 87.1571 29.074 87.8411 29.074ZM100.115 21.658C100.499 21.658 100.823 21.718 101.087 21.838L101.069 24.322C100.625 24.118 100.181 24.016 99.737 24.016C99.017 24.016 98.465 24.214 98.081 24.61C97.709 24.994 97.523 25.534 97.523 26.23V31H94.805V24.484C94.805 23.512 94.757 22.642 94.661 21.874H97.217L97.397 23.44C97.625 22.864 97.979 22.426 98.459 22.126C98.951 21.814 99.503 21.658 100.115 21.658Z" fill="white"/>
</g>
</svg>
