<svg width="192" height="220" viewBox="0 0 192 220" fill="none" xmlns="http://www.w3.org/2000/svg">
<rect width="192" height="220" rx="30" fill="#5956E9"/>
<path d="M64.0646 149V145.8H68.0646V134.625H69.8896L64.4896 137.775V134.125L69.1896 131.375H71.9646V145.8H75.7146V149H64.0646ZM84.0298 149.275C81.9131 149.275 80.2798 148.483 79.1298 146.9C77.9965 145.3 77.4298 143.05 77.4298 140.15C77.4298 137.2 77.9965 134.958 79.1298 133.425C80.2798 131.875 81.9131 131.1 84.0298 131.1C86.1631 131.1 87.7965 131.875 88.9298 133.425C90.0631 134.958 90.6298 137.192 90.6298 140.125C90.6298 143.042 90.0631 145.3 88.9298 146.9C87.7965 148.483 86.1631 149.275 84.0298 149.275ZM84.0298 146.125C84.9965 146.125 85.7131 145.65 86.1798 144.7C86.6631 143.733 86.9048 142.208 86.9048 140.125C86.9048 138.042 86.6631 136.542 86.1798 135.625C85.7131 134.708 84.9965 134.25 84.0298 134.25C83.0631 134.25 82.3381 134.708 81.8548 135.625C81.3881 136.542 81.1548 138.033 81.1548 140.1C81.1548 142.2 81.3965 143.733 81.8798 144.7C82.3631 145.65 83.0798 146.125 84.0298 146.125ZM99.02 149.275C96.9034 149.275 95.27 148.483 94.12 146.9C92.9867 145.3 92.42 143.05 92.42 140.15C92.42 137.2 92.9867 134.958 94.12 133.425C95.27 131.875 96.9034 131.1 99.02 131.1C101.153 131.1 102.787 131.875 103.92 133.425C105.053 134.958 105.62 137.192 105.62 140.125C105.62 143.042 105.053 145.3 103.92 146.9C102.787 148.483 101.153 149.275 99.02 149.275ZM99.02 146.125C99.9867 146.125 100.703 145.65 101.17 144.7C101.653 143.733 101.895 142.208 101.895 140.125C101.895 138.042 101.653 136.542 101.17 135.625C100.703 134.708 99.9867 134.25 99.02 134.25C98.0534 134.25 97.3284 134.708 96.845 135.625C96.3784 136.542 96.145 138.033 96.145 140.1C96.145 142.2 96.3867 143.733 96.87 144.7C97.3534 145.65 98.07 146.125 99.02 146.125ZM114.91 149H111.71L122.06 131.375H125.26L114.91 149ZM112.01 141.875C110.56 141.875 109.427 141.392 108.61 140.425C107.794 139.442 107.385 138.125 107.385 136.475C107.385 134.808 107.794 133.5 108.61 132.55C109.444 131.583 110.577 131.1 112.01 131.1C113.46 131.1 114.594 131.592 115.41 132.575C116.227 133.542 116.635 134.842 116.635 136.475C116.635 138.125 116.227 139.442 115.41 140.425C114.594 141.392 113.46 141.875 112.01 141.875ZM112.01 139.55C112.51 139.55 112.894 139.308 113.16 138.825C113.444 138.342 113.585 137.558 113.585 136.475C113.585 135.375 113.444 134.6 113.16 134.15C112.894 133.7 112.51 133.475 112.01 133.475C111.494 133.475 111.102 133.7 110.835 134.15C110.569 134.583 110.435 135.358 110.435 136.475C110.435 137.592 110.569 138.383 110.835 138.85C111.102 139.317 111.494 139.55 112.01 139.55ZM124.96 149.275C123.51 149.275 122.377 148.783 121.56 147.8C120.744 146.817 120.335 145.5 120.335 143.85C120.335 142.183 120.744 140.875 121.56 139.925C122.394 138.975 123.527 138.5 124.96 138.5C126.427 138.5 127.56 138.983 128.36 139.95C129.177 140.917 129.585 142.217 129.585 143.85C129.585 145.5 129.177 146.817 128.36 147.8C127.56 148.783 126.427 149.275 124.96 149.275ZM124.96 146.9C125.477 146.9 125.869 146.667 126.135 146.2C126.419 145.717 126.56 144.933 126.56 143.85C126.56 142.75 126.419 141.975 126.135 141.525C125.869 141.058 125.477 140.825 124.96 140.825C124.46 140.825 124.069 141.05 123.785 141.5C123.519 141.95 123.385 142.733 123.385 143.85C123.385 144.967 123.519 145.758 123.785 146.225C124.069 146.675 124.46 146.9 124.96 146.9ZM49.2648 177V159.375H52.1648L61.7398 171.55H61.0648V159.375H64.6898V177H61.7898L52.2398 164.825H52.8898V177H49.2648ZM74.009 177.275C72.659 177.275 71.484 177.008 70.484 176.475C69.5007 175.925 68.734 175.158 68.184 174.175C67.6507 173.192 67.384 172.017 67.384 170.65C67.384 169.3 67.6507 168.133 68.184 167.15C68.734 166.167 69.5007 165.408 70.484 164.875C71.484 164.342 72.659 164.075 74.009 164.075C75.359 164.075 76.534 164.342 77.534 164.875C78.534 165.408 79.3007 166.167 79.834 167.15C80.384 168.133 80.659 169.3 80.659 170.65C80.659 172.017 80.384 173.192 79.834 174.175C79.3007 175.158 78.534 175.925 77.534 176.475C76.534 177.008 75.359 177.275 74.009 177.275ZM74.009 174.425C74.8757 174.425 75.559 174.117 76.059 173.5C76.5757 172.883 76.834 171.933 76.834 170.65C76.834 169.367 76.5757 168.425 76.059 167.825C75.559 167.225 74.8757 166.925 74.009 166.925C73.1423 166.925 72.4507 167.225 71.934 167.825C71.434 168.425 71.184 169.367 71.184 170.65C71.184 171.933 71.434 172.883 71.934 173.5C72.4507 174.117 73.1423 174.425 74.009 174.425ZM83.5131 171.575V168.625H91.3881V171.575H83.5131ZM94.8215 177V159.375H102.821C104.805 159.375 106.338 159.85 107.421 160.8C108.505 161.733 109.046 163.042 109.046 164.725C109.046 165.825 108.796 166.775 108.296 167.575C107.813 168.358 107.113 168.967 106.196 169.4C105.296 169.817 104.213 170.025 102.946 170.025L103.246 169.475H104.271C104.988 169.475 105.621 169.667 106.171 170.05C106.738 170.433 107.205 170.992 107.571 171.725L110.196 177H105.896L103.171 171.325C102.971 170.842 102.655 170.525 102.221 170.375C101.805 170.208 101.321 170.125 100.771 170.125H98.7215V177H94.8215ZM98.7215 167.325H102.146C103.163 167.325 103.938 167.117 104.471 166.7C105.005 166.283 105.271 165.667 105.271 164.85C105.271 164.033 105.005 163.425 104.471 163.025C103.938 162.608 103.163 162.4 102.146 162.4H98.7215V167.325ZM112.272 177V164.325H116.047V177H112.272ZM112.122 162.25V158.725H116.172V162.25H112.122ZM123.807 177.275C122.674 177.275 121.64 177.15 120.707 176.9C119.774 176.65 118.982 176.3 118.332 175.85L119.307 173.35C119.957 173.75 120.674 174.067 121.457 174.3C122.257 174.533 123.049 174.65 123.832 174.65C124.565 174.65 125.107 174.533 125.457 174.3C125.807 174.067 125.982 173.75 125.982 173.35C125.982 173.017 125.865 172.758 125.632 172.575C125.415 172.392 125.074 172.258 124.607 172.175L122.032 171.7C120.949 171.483 120.124 171.083 119.557 170.5C118.99 169.917 118.707 169.158 118.707 168.225C118.707 167.408 118.924 166.692 119.357 166.075C119.807 165.442 120.449 164.95 121.282 164.6C122.115 164.25 123.09 164.075 124.207 164.075C125.157 164.075 126.057 164.192 126.907 164.425C127.757 164.658 128.482 165.017 129.082 165.5L128.057 167.925C127.54 167.542 126.94 167.233 126.257 167C125.59 166.767 124.949 166.65 124.332 166.65C123.532 166.65 122.957 166.783 122.607 167.05C122.257 167.3 122.082 167.625 122.082 168.025C122.082 168.325 122.182 168.575 122.382 168.775C122.599 168.975 122.924 169.125 123.357 169.225L125.957 169.7C127.074 169.9 127.924 170.275 128.507 170.825C129.09 171.375 129.382 172.133 129.382 173.1C129.382 173.983 129.149 174.733 128.682 175.35C128.215 175.967 127.557 176.442 126.707 176.775C125.874 177.108 124.907 177.275 123.807 177.275ZM131.73 177V158.6H135.505V169.6H135.555L140.255 164.325H144.755L138.68 171.075V169.7L145.08 177H140.455L135.555 171.5H135.505V177H131.73Z" fill="white"/>
<circle cx="98" cy="76" r="38" fill="#7876FC"/>
<path d="M106 68L94.92 81L90 76.1047" stroke="#433FED" stroke-width="4" stroke-linecap="round" stroke-linejoin="round"/>
<path d="M117.914 62.1894C109.315 60.6471 105.761 59.5048 98 56C90.2394 59.5048 86.6846 60.6471 78.0865 62.1894C76.5288 86.8779 96.5173 95.4029 98 96C99.4827 95.4029 119.471 86.8779 117.914 62.1894Z" stroke="#433FED" stroke-width="4" stroke-linecap="round" stroke-linejoin="round"/>
</svg>
